<svg width="1080" height="1440" viewBox="0 0 1080 1440" fill="none" xmlns="http://www.w3.org/2000/svg">
  <defs>
    <linearGradient id="nord-bg" x1="120" y1="86" x2="960" y2="1334" gradientUnits="userSpaceOnUse">
      <stop stop-color="#18222F"/>
      <stop offset="0.42" stop-color="#5A6C82"/>
      <stop offset="1" stop-color="#F5F8FB"/>
    </linearGradient>
    <linearGradient id="nord-beam-left" x1="220" y1="120" x2="468" y2="1090" gradientUnits="userSpaceOnUse">
      <stop stop-color="#F4F8FD" stop-opacity="0.82"/>
      <stop offset="1" stop-color="#F4F8FD" stop-opacity="0"/>
    </linearGradient>
    <linearGradient id="nord-beam-right" x1="860" y1="120" x2="612" y2="1090" gradientUnits="userSpaceOnUse">
      <stop stop-color="#F4F8FD" stop-opacity="0.72"/>
      <stop offset="1" stop-color="#F4F8FD" stop-opacity="0"/>
    </linearGradient>
  </defs>
  <rect width="1080" height="1440" fill="url(#nord-bg)"/>
  <path d="M176 118L404 1090H512L278 118H176Z" fill="url(#nord-beam-left)"/>
  <path d="M904 118L676 1090H568L802 118H904Z" fill="url(#nord-beam-right)"/>
  <path d="M260 742H820L892 1440H188L260 742Z" fill="#E5ECF4" fill-opacity="0.1"/>
  <path d="M0 1088C188 1042 350 1014 540 1014C730 1014 892 1042 1080 1088V1440H0V1088Z" fill="#111A25" fill-opacity="0.9"/>
  <path d="M136 1038C246 998 388 974 540 974C692 974 834 998 944 1038V1440H136V1038Z" fill="#243445" fill-opacity="0.9"/>
</svg>
